<svg width="19" height="19" viewBox="0 0 19 19" fill="none" xmlns="http://www.w3.org/2000/svg">
<path fill-rule="evenodd" clip-rule="evenodd" d="M9.99951 1C9.99951 0.447715 9.5518 0 8.99951 0C8.44723 0 7.99951 0.447715 7.99951 1L7.99951 8L0.999512 8C0.447227 8 -0.000488281 8.44771 -0.000488281 9C-0.000488281 9.55228 0.447227 10 0.999512 10L7.99951 10L7.99951 18C7.99951 18.5523 8.44723 19 8.99951 19C9.5518 19 9.99951 18.5523 9.99951 18V10L17.9995 10C18.5518 10 18.9995 9.55228 18.9995 9C18.9995 8.44771 18.5518 8 17.9995 8L9.99951 8V1Z" fill="#BBBBBB"/>
</svg>
