<svg width="20" height="20" fill="none" xmlns="http://www.w3.org/2000/svg"><g clip-path="url(#clip0_11077_59454)"><path d="M11.04 15.953c.028-.096.165-.096.192 0l.361 1.276a.348.348 0 0 0 .24.24l1.277.362c.096.027.096.163 0 .19l-1.277.362a.348.348 0 0 0-.24.24l-.361 1.276c-.027.097-.164.097-.191 0l-.362-1.276a.348.348 0 0 0-.24-.24l-1.276-.361c-.096-.027-.096-.164 0-.191l1.276-.361a.348.348 0 0 0 .24-.24l.362-1.277Z" fill="url(#paint0_linear_11077_59454)"/><path d="M17.383 10.515c.034-.118.2-.118.234 0l.441 1.56c.04.142.152.253.294.293l1.56.442c.117.033.117.2 0 .233l-1.56.442a.425.425 0 0 0-.294.293l-.441 1.56c-.034.118-.2.118-.234 0l-.441-1.56a.425.425 0 0 0-.294-.293l-1.56-.441c-.117-.034-.117-.2 0-.234l1.56-.442a.425.425 0 0 0 .294-.293l.441-1.56Z" fill="url(#paint1_linear_11077_59454)"/><path d="M6.215 10.206c.042-.15.255-.15.297 0l.562 1.985c.051.181.193.323.373.374l1.986.562c.15.042.15.255 0 .297l-1.986.562a.541.541 0 0 0-.373.374l-.562 1.985c-.042.15-.255.15-.297 0l-.562-1.985a.542.542 0 0 0-.373-.374l-1.986-.562c-.15-.042-.15-.255 0-.297l1.985-.562a.541.541 0 0 0 .374-.374l.562-1.985Z" fill="url(#paint2_linear_11077_59454)"/><path d="M1.95 5.953c.027-.096.164-.096.191 0l.361 1.276a.348.348 0 0 0 .24.24l1.277.362c.096.027.096.164 0 .19l-1.277.362a.348.348 0 0 0-.24.24L2.142 9.9c-.028.097-.165.097-.192 0l-.362-1.276a.348.348 0 0 0-.24-.24L.073 8.022c-.096-.027-.096-.164 0-.191L1.35 7.47a.348.348 0 0 0 .24-.24l.36-1.277Z" fill="url(#paint3_linear_11077_59454)"/><path d="M5.802.507c.03-.107.182-.107.213 0l.401 1.418c.037.13.138.23.267.267l1.418.401c.107.03.107.182 0 .213l-1.418.401a.387.387 0 0 0-.267.267l-.401 1.418c-.03.107-.182.107-.213 0l-.401-1.418a.387.387 0 0 0-.267-.267l-1.418-.401c-.107-.03-.107-.182 0-.213l1.418-.401a.387.387 0 0 0 .267-.267L5.802.507Z" fill="url(#paint4_linear_11077_59454)"/><path d="M17.642 1.4c.025-.085.146-.085.17 0l.322 1.135a.31.31 0 0 0 .213.213l1.134.321c.086.024.086.146 0 .17l-1.134.321a.31.31 0 0 0-.213.214l-.322 1.134c-.024.086-.145.086-.17 0l-.32-1.134a.31.31 0 0 0-.214-.214l-1.135-.32c-.085-.025-.085-.147 0-.17l1.135-.322a.31.31 0 0 0 .213-.213l.321-1.135Z" fill="url(#paint5_linear_11077_59454)"/><path d="M12.203 5.879c3.46 0 6.325 1.151 6.646 1.245.322.094.322.567 0 .66l-4.254 1.248c-.387.113-.69.427-.8.828-.11.402-1.116 4.072-1.204 4.406a.328.328 0 0 1-.637 0c-.428-1.732-.749-2.682-1.205-4.406a1.182 1.182 0 0 0-.8-.828c-1.657-.502-2.593-.76-4.254-1.247-.322-.094-.387-.503 0-.66 1.526-.62 3.046-1.246 6.508-1.246Z" fill="url(#paint6_linear_11077_59454)"/><path d="M12.292.417a2.292 2.292 0 1 1 0 4.583 2.292 2.292 0 0 1 0-4.583Z" fill="url(#paint7_linear_11077_59454)"/></g><defs><linearGradient id="paint0_linear_11077_59454" x1="21.5207" y1="15.775" x2="6.89238" y2="32.3596" gradientUnits="userSpaceOnUse"><stop offset="0.215638" stop-color="#999999"/><stop offset="0.791315" stop-color="#949494"/></linearGradient><linearGradient id="paint1_linear_11077_59454" x1="30.192" y1="10.2974" x2="12.313" y2="30.5674" gradientUnits="userSpaceOnUse"><stop offset="0.317655" stop-color="#BABABA"/><stop offset="0.577647" stop-color="#949494"/></linearGradient><linearGradient id="paint2_linear_11077_59454" x1="22.5169" y1="9.9291" x2="-0.238151" y2="35.7273" gradientUnits="userSpaceOnUse"><stop offset="0.215638" stop-color="#999999"/><stop offset="0.791315" stop-color="#949494"/></linearGradient><linearGradient id="paint3_linear_11077_59454" x1="12.4298" y1="5.77501" x2="-2.19844" y2="22.3596" gradientUnits="userSpaceOnUse"><stop offset="0.215638" stop-color="#999999"/><stop offset="0.791315" stop-color="#949494"/></linearGradient><linearGradient id="paint4_linear_11077_59454" x1="14.8091" y1="0.107188" x2="-8.83326" y2="27.7688" gradientUnits="userSpaceOnUse"><stop offset="0.19232" stop-color="#BDBDBD"/><stop offset="0.297596" stop-color="#909090"/></linearGradient><linearGradient id="paint5_linear_11077_59454" x1="26.9579" y1="1.24185" x2="13.955" y2="15.9837" gradientUnits="userSpaceOnUse"><stop offset="0.215638" stop-color="#CCCCCC"/><stop offset="0.685172" stop-color="#8C8C8C"/></linearGradient><linearGradient id="paint6_linear_11077_59454" x1="39.0111" y1="5.27172" x2="0.97381" y2="75.671" gradientUnits="userSpaceOnUse"><stop offset="0.150602" stop-color="#C1C1C1"/><stop offset="0.205293" stop-color="#9F9F9F"/></linearGradient><linearGradient id="paint7_linear_11077_59454" x1="21.2665" y1="0.0947595" x2="-2.57291" y2="27.9869" gradientUnits="userSpaceOnUse"><stop offset="0.137358" stop-color="#C4C4C4"/><stop offset="0.297596" stop-color="#9C9C9C"/></linearGradient><clipPath id="clip0_11077_59454"><rect width="20" height="20" fill="white"/></clipPath></defs></svg>