<?xml version="1.0" encoding="UTF-8"?>
<!-- Generated by Pixelmator Pro 3.3.2 -->
<svg width="48" height="48" viewBox="0 0 48 48" xmlns="http://www.w3.org/2000/svg" xmlns:xlink="http://www.w3.org/1999/xlink">
    <g id="Group">
        <linearGradient id="linearGradient1" x1="41.983473" y1="9.513343" x2="9.143996" y2="46.000174" gradientUnits="userSpaceOnUse">
            <stop offset="0.215638" stop-color="#fec826" stop-opacity="1"/>
            <stop offset="0.934042" stop-color="#ff243f" stop-opacity="1"/>
        </linearGradient>
        <path id="Path" fill="url(#linearGradient1)" stroke="none" d="M 26.289494 37.15905 C 26.349564 36.946983 26.650146 36.946983 26.71014 37.15905 L 27.504824 39.966892 C 27.577276 40.222649 27.777332 40.422482 28.032841 40.494942 L 30.841305 41.289665 C 31.052898 41.349892 31.052898 41.650108 30.841305 41.710335 L 28.032841 42.505058 C 27.777254 42.577595 27.5772 42.777504 27.504824 43.033108 L 26.71014 45.84095 C 26.650146 46.053017 26.349564 46.053017 26.289494 45.84095 L 25.494812 43.033108 C 25.422434 42.777428 25.222534 42.577518 24.966791 42.505058 L 22.159098 41.710335 C 21.946968 41.650337 21.946968 41.349663 22.159098 41.289665 L 24.966791 40.494942 C 25.222456 40.422482 25.422358 40.222649 25.494812 39.966892 L 26.289494 37.15905 Z"/>
        <linearGradient id="linearGradient2" x1="46.312374" y1="-2.261957" x2="6.978582" y2="42.33038" gradientUnits="userSpaceOnUse">
            <stop offset="0.215638" stop-color="#fec826" stop-opacity="1"/>
            <stop offset="0.934042" stop-color="#ff243f" stop-opacity="1"/>
        </linearGradient>
        <path id="path1" fill="url(#linearGradient2)" stroke="none" d="M 40.24316 25.19445 C 40.316586 24.935183 40.683521 24.935183 40.756943 25.19445 L 41.728588 28.626057 C 41.817028 28.938532 42.061161 29.182949 42.373558 29.271406 L 45.805779 30.242682 C 46.064739 30.31629 46.064739 30.683193 45.805779 30.7568 L 42.373558 31.729015 C 42.061344 31.81757 41.817028 32.06123 41.728588 32.373425 L 40.756943 35.805969 C 40.683243 36.064674 40.31686 36.064674 40.24316 35.805969 L 39.271606 32.373425 C 39.183075 32.06123 38.938759 31.81757 38.626549 31.729015 L 35.194328 30.7568 C 34.935268 30.68329 34.935177 30.316193 35.194328 30.242682 L 38.626549 29.271406 C 38.938946 29.182856 39.183167 28.938532 39.271606 28.626057 L 40.24316 25.19445 Z"/>
        <linearGradient id="linearGradient3" x1="41.720939" y1="3.28054" x2="3.21279" y2="46.066296" gradientUnits="userSpaceOnUse">
            <stop offset="0.466344" stop-color="#fec826" stop-opacity="1"/>
            <stop offset="0.78459" stop-color="#ff243f" stop-opacity="1"/>
        </linearGradient>
        <path id="path2" fill="url(#linearGradient3)" stroke="none" d="M 15.67282 24.5158 C 15.766258 24.185766 16.23381 24.185766 16.327248 24.5158 L 17.563864 28.882996 C 17.676426 29.280767 17.986954 29.592129 18.384699 29.704786 L 22.752491 30.940586 C 23.082502 31.034029 23.082502 31.502516 22.752491 31.595961 L 18.384699 32.831764 C 17.986954 32.944328 17.676426 33.255779 17.563864 33.653557 L 16.327248 38.020744 C 16.23381 38.350784 15.766258 38.350784 15.67282 38.020744 L 14.436205 33.653557 C 14.323554 33.255779 14.013025 32.94442 13.615281 32.831764 L 9.247576 31.595961 C 8.917476 31.502516 8.917476 31.034029 9.247576 30.940586 L 13.615281 29.704786 C 14.013025 29.592129 14.323554 29.280767 14.436205 28.882996 L 15.67282 24.5158 Z"/>
        <linearGradient id="linearGradient4" x1="29.566977" y1="8.215286" x2="4.811473" y2="35.719181" gradientUnits="userSpaceOnUse">
            <stop offset="0.215638" stop-color="#fec826" stop-opacity="1"/>
            <stop offset="0.934042" stop-color="#ff243f" stop-opacity="1"/>
        </linearGradient>
        <path id="path4" fill="url(#linearGradient4)" stroke="none" d="M 6.289655 15.158939 C 6.349833 14.947021 6.650209 14.947021 6.710359 15.158939 L 7.505329 17.966877 C 7.577724 18.222576 7.777358 18.422787 8.033053 18.495148 L 10.840951 19.289555 C 11.053045 19.349625 11.052987 19.650143 10.840951 19.71027 L 8.033053 20.505257 C 7.777474 20.577618 7.577787 20.777422 7.505329 21.032948 L 6.710359 23.840883 C 6.650314 24.05304 6.349718 24.05304 6.289655 23.840883 L 5.494686 21.032948 C 5.422233 20.777422 5.22254 20.577618 4.966967 20.505257 L 2.159085 19.71027 C 1.946993 19.650143 1.94695 19.349625 2.159085 19.289555 L 4.966967 18.495148 C 5.222668 18.422729 5.422296 18.222576 5.494686 17.966877 L 6.289655 15.158939 Z"/>
        <linearGradient id="linearGradient5" x1="40.384039" y1="2.74126" x2="4.626045" y2="43.281373" gradientUnits="userSpaceOnUse">
            <stop offset="0.215638" stop-color="#fec826" stop-opacity="1"/>
            <stop offset="0.934042" stop-color="#ff243f" stop-opacity="1"/>
        </linearGradient>
        <path id="path5" fill="url(#linearGradient5)" stroke="none" d="M 14.76651 3.176804 C 14.83326 2.941067 15.166836 2.941067 15.233585 3.176804 L 16.116899 6.296558 C 16.197298 6.580624 16.419237 6.802818 16.703236 6.883286 L 19.823435 7.766304 C 20.058855 7.833164 20.058855 8.166786 19.823435 8.233681 L 16.703236 9.116695 C 16.419237 9.197136 16.197298 9.419445 16.116899 9.703426 L 15.233585 12.823154 C 15.166836 13.058949 14.83326 13.058949 14.76651 12.823154 L 13.88328 9.703426 C 13.802796 9.419464 13.580774 9.197163 13.29686 9.116695 L 10.176661 8.233681 C 9.941154 8.166847 9.941072 7.833111 10.176661 7.766304 L 13.29686 6.883286 C 13.580774 6.802795 13.802796 6.580601 13.88328 6.296558 L 14.76651 3.176804 Z"/>
        <linearGradient id="linearGradient6" x1="61.307231" y1="4.793008" x2="32.700836" y2="37.225099" gradientUnits="userSpaceOnUse">
            <stop offset="0.215638" stop-color="#fec826" stop-opacity="1"/>
            <stop offset="0.934042" stop-color="#ff243f" stop-opacity="1"/>
        </linearGradient>
        <path id="Path-copy" fill="url(#linearGradient6)" stroke="none" d="M 40.81321 5.141441 C 40.866608 4.952854 41.133469 4.952854 41.186867 5.141441 L 41.89352 7.637249 C 41.95784 7.864498 42.135391 8.042255 42.362587 8.106628 L 44.858746 8.813042 C 45.047085 8.866531 45.047085 9.13343 44.858746 9.186943 L 42.362587 9.893356 C 42.135391 9.957706 41.95784 10.135555 41.89352 10.36274 L 41.186867 12.858524 C 41.133469 13.047157 40.866608 13.047157 40.81321 12.858524 L 40.106625 10.36274 C 40.042236 10.135571 39.86462 9.957729 39.637489 9.893356 L 37.141327 9.186943 C 36.952923 9.133476 36.952858 8.866489 37.141327 8.813042 L 39.637489 8.106628 C 39.86462 8.042236 40.042236 7.864479 40.106625 7.637249 L 40.81321 5.141441 Z"/>
        <linearGradient id="linearGradient7" x1="44.6641" y1="4.43556" x2="3.06797" y2="53.1323" gradientUnits="userSpaceOnUse">
            <stop offset="0.182495" stop-color="#fec826" stop-opacity="1"/>
            <stop offset="0.607517" stop-color="#ff243f" stop-opacity="1"/>
        </linearGradient>
        <path id="Path-copy-2" fill="url(#linearGradient7)" stroke="none" d="M 28.846001 14.994999 C 36.459999 14.994999 42.762001 17.528999 43.469002 17.735001 C 44.175999 17.943001 44.175999 18.981001 43.469002 19.188 L 34.109001 21.931 C 33.257 22.181 32.591 22.871 32.348999 23.754 C 32.109001 24.636999 29.9 32.714001 29.700001 33.445999 C 29.62047 33.768505 29.331165 33.995132 28.999001 33.995132 C 28.666836 33.995132 28.377529 33.768505 28.298 33.445999 L 25.648001 23.754 C 25.417189 22.882227 24.75112 22.192316 23.888 21.931 L 14.529 19.188 C 13.822 18.981001 13.822 17.943001 14.529 17.736 C 15.236 17.528999 21.231001 14.994999 28.846001 14.994999 Z"/>
        <linearGradient id="linearGradient8" x1="48.582832" y1="2.297089" x2="-3.417528" y2="63.155847" gradientUnits="userSpaceOnUse">
            <stop offset="0.137358" stop-color="#fec826" stop-opacity="1"/>
            <stop offset="0.394067" stop-color="#ff243f" stop-opacity="1"/>
        </linearGradient>
        <path id="path3" fill="url(#linearGradient8)" stroke="none" d="M 28.9995 3 C 31.7612 3 34 5.238125 34 7.999001 C 34 10.759869 31.7612 12.998001 28.9995 12.998001 C 26.237801 12.998001 23.999001 10.759869 23.999001 7.999001 C 23.999001 5.238125 26.237801 3 28.9995 3 Z"/>
    </g>
</svg>
