<svg width="97" height="96" viewBox="0 0 97 96" fill="none" xmlns="http://www.w3.org/2000/svg">
<path opacity="0.8" d="M48.75 0C75.2597 0 96.75 21.4903 96.75 48C96.75 74.5097 75.2597 96 48.75 96C22.2403 96 0.75 74.5097 0.75 48C0.75 21.4903 22.2403 0 48.75 0ZM77.1055 30.4775C75.9128 29.3274 74.0134 29.362 72.8633 30.5547L41.2676 63.3174L25.9062 47.4365L25.7959 47.3281C24.6361 46.2447 22.8177 46.2494 21.6641 47.3652C20.4734 48.5171 20.4419 50.4166 21.5938 51.6074L41.2744 71.9551L77.1826 34.7188C78.3322 33.5262 78.2975 31.6276 77.1055 30.4775Z" fill="#808080"/>
</svg>
